HIERARCHY
ROOT hip
{
  OFFSET 0 90.174 2.4664
  CHANNELS 6 Xposition Yposition Zposition Zrotation Xrotation Yrotation
  JOINT abdomen
  {
    OFFSET 0 -1.186 -1.5018
    CHANNELS 6 Xposition Yposition Zposition Zrotation Xrotation Yrotation
    JOINT abdomen2
    {
      OFFSET 0 9.964 0.2134
      CHANNELS 6 Xposition Yposition Zposition Zrotation Xrotation Yrotation
      JOINT chest
      {
        OFFSET 0 13.134 -3.2573
        CHANNELS 6 Xposition Yposition Zposition Zrotation Xrotation Yrotation
        JOINT neck
        {
          OFFSET 0 20.686 -1.6905
          CHANNELS 6 Xposition Yposition Zposition Zrotation Xrotation Yrotation
          JOINT head
          {
            OFFSET 0 7.238 -0.1237
            CHANNELS 6 Xposition Yposition Zposition Zrotation Xrotation Yrotation
            End Site
            {
              OFFSET 0 0 0
            }
          }
        }
        JOINT lCollar
        {
          OFFSET 1.7069 20.075 5.0056
          CHANNELS 6 Xposition Yposition Zposition Zrotation Xrotation Yrotation
          JOINT lShldr
          {
            OFFSET 13.6458 -0.047 -4.849
            CHANNELS 6 Xposition Yposition Zposition Zrotation Xrotation Yrotation
            JOINT lForeArm
            {
              OFFSET 28.3255 -0.9759 2.2888
              CHANNELS 6 Xposition Yposition Zposition Zrotation Xrotation Yrotation
              JOINT lHand
              {
                OFFSET 22.1583 -0.53 10.8316
                CHANNELS 6 Xposition Yposition Zposition Zrotation Xrotation Yrotation
                JOINT lThumb1
                {
                  OFFSET 0.786 0.112 2.5817
                  CHANNELS 6 Xposition Yposition Zposition Zrotation Xrotation Yrotation
                  JOINT lThumb2
                  {
                    OFFSET 0.3601 -0.878 4.2331
                    CHANNELS 6 Xposition Yposition Zposition Zrotation Xrotation Yrotation
                    JOINT lThumb2_End
                    {
                      OFFSET 1.8127 -1.216 2.2227
                      CHANNELS 6 Xposition Yposition Zposition Zrotation Xrotation Yrotation
                      End Site
                      {
                        OFFSET 0.0181 -0.0122 0.0222
                      }
                    }
                  }
                }
                JOINT lCarpal1
                {
                  OFFSET 0.9571 1.114 1.7695
                  CHANNELS 6 Xposition Yposition Zposition Zrotation Xrotation Yrotation
                  JOINT lIndex1
                  {
                    OFFSET 4.1246 0.487 4.1451
                    CHANNELS 6 Xposition Yposition Zposition Zrotation Xrotation Yrotation
                    JOINT lIndex2
                    {
                      OFFSET 3.4052 -1.454 2.7682
                      CHANNELS 6 Xposition Yposition Zposition Zrotation Xrotation Yrotation
                      JOINT lIndex2_End
                      {
                        OFFSET 1.4531 -1.795 1.2713
                        CHANNELS 6 Xposition Yposition Zposition Zrotation Xrotation Yrotation
                        End Site
                        {
                          OFFSET 0.0145 -0.0179 0.0127
                        }
                      }
                    }
                  }
                  JOINT lMid1
                  {
                    OFFSET 5.6954 0.21 2.1184
                    CHANNELS 6 Xposition Yposition Zposition Zrotation Xrotation Yrotation
                    JOINT lMid2
                    {
                      OFFSET 3.9766 -1.54 2.3863
                      CHANNELS 6 Xposition Yposition Zposition Zrotation Xrotation Yrotation
                      JOINT lMid2_End
                      {
                        OFFSET 1.4042 -1.926 1.125
                        CHANNELS 6 Xposition Yposition Zposition Zrotation Xrotation Yrotation
                        End Site
                        {
                          OFFSET 0.014 -0.0193 0.0113
                        }
                      }
                    }
                  }
                }
                JOINT lCarpal2
                {
                  OFFSET 2.0956 0.66 -0.3894
                  CHANNELS 6 Xposition Yposition Zposition Zrotation Xrotation Yrotation
                  JOINT lRing1
                  {
                    OFFSET 5.0395 -0.09 2.4971
                    CHANNELS 6 Xposition Yposition Zposition Zrotation Xrotation Yrotation
                    JOINT lRing2
                    {
                      OFFSET 3.7921 -1.552 1.4806
                      CHANNELS 6 Xposition Yposition Zposition Zrotation Xrotation Yrotation
                      JOINT lRing2_End
                      {
                        OFFSET 1.4655 -1.808 0.9609
                        CHANNELS 6 Xposition Yposition Zposition Zrotation Xrotation Yrotation
                        End Site
                        {
                          OFFSET 0.0147 -0.0181 0.0096
                        }
                      }
                    }
                  }
                  JOINT lPinky1
                  {
                    OFFSET 4.9141 -1.269 0.3591
                    CHANNELS 6 Xposition Yposition Zposition Zrotation Xrotation Yrotation
                    JOINT lPinky2
                    {
                      OFFSET 3.1477 -1.685 0.8462
                      CHANNELS 6 Xposition Yposition Zposition Zrotation Xrotation Yrotation
                      JOINT lPinky2_End
                      {
                        OFFSET 0.8055 -1.585 0.7955
                        CHANNELS 6 Xposition Yposition Zposition Zrotation Xrotation Yrotation
                        End Site
                        {
                          OFFSET 0.0081 -0.0158 0.008
                        }
                      }
                    }
                  }
                }
              }
            }
          }
        }
        JOINT rCollar
        {
          OFFSET -1.7069 20.075 5.0056
          CHANNELS 6 Xposition Yposition Zposition Zrotation Xrotation Yrotation
          JOINT rShldr
          {
            OFFSET -13.6458 -0.047 -4.849
            CHANNELS 6 Xposition Yposition Zposition Zrotation Xrotation Yrotation
            JOINT rForeArm
            {
              OFFSET -28.3255 -0.9759 2.2888
              CHANNELS 6 Xposition Yposition Zposition Zrotation Xrotation Yrotation
              JOINT rHand
              {
                OFFSET -22.1583 -0.53 10.8316
                CHANNELS 6 Xposition Yposition Zposition Zrotation Xrotation Yrotation
                JOINT rThumb1
                {
                  OFFSET -0.786 0.112 2.5817
                  CHANNELS 6 Xposition Yposition Zposition Zrotation Xrotation Yrotation
                  JOINT rThumb2
                  {
                    OFFSET -0.3601 -0.878 4.2331
                    CHANNELS 6 Xposition Yposition Zposition Zrotation Xrotation Yrotation
                    JOINT rThumb2_End
                    {
                      OFFSET -1.8127 -1.216 2.2227
                      CHANNELS 6 Xposition Yposition Zposition Zrotation Xrotation Yrotation
                      End Site
                      {
                        OFFSET -0.0181 -0.0122 0.0222
                      }
                    }
                  }
                }
                JOINT rCarpal1
                {
                  OFFSET -0.9571 1.114 1.7695
                  CHANNELS 6 Xposition Yposition Zposition Zrotation Xrotation Yrotation
                  JOINT rIndex1
                  {
                    OFFSET -4.1246 0.487 4.1451
                    CHANNELS 6 Xposition Yposition Zposition Zrotation Xrotation Yrotation
                    JOINT rIndex2
                    {
                      OFFSET -3.4052 -1.454 2.7682
                      CHANNELS 6 Xposition Yposition Zposition Zrotation Xrotation Yrotation
                      JOINT rIndex2_End
                      {
                        OFFSET -1.4531 -1.795 1.2713
                        CHANNELS 6 Xposition Yposition Zposition Zrotation Xrotation Yrotation
                        End Site
                        {
                          OFFSET -0.0145 -0.018 0.0127
                        }
                      }
                    }
                  }
                  JOINT rMid1
                  {
                    OFFSET -5.6954 0.21 2.1184
                    CHANNELS 6 Xposition Yposition Zposition Zrotation Xrotation Yrotation
                    JOINT rMid2
                    {
                      OFFSET -3.9766 -1.54 2.3863
                      CHANNELS 6 Xposition Yposition Zposition Zrotation Xrotation Yrotation
                      JOINT rMid2_End
                      {
                        OFFSET -1.4042 -1.926 1.125
                        CHANNELS 6 Xposition Yposition Zposition Zrotation Xrotation Yrotation
                        End Site
                        {
                          OFFSET -0.014 -0.0193 0.0113
                        }
                      }
                    }
                  }
                }
                JOINT rCarpal2
                {
                  OFFSET -2.0956 0.66 -0.3894
                  CHANNELS 6 Xposition Yposition Zposition Zrotation Xrotation Yrotation
                  JOINT rRing1
                  {
                    OFFSET -5.0395 -0.09 2.4971
                    CHANNELS 6 Xposition Yposition Zposition Zrotation Xrotation Yrotation
                    JOINT rRing2
                    {
                      OFFSET -3.7921 -1.552 1.4806
                      CHANNELS 6 Xposition Yposition Zposition Zrotation Xrotation Yrotation
                      JOINT rRing2_End
                      {
                        OFFSET -1.4655 -1.808 0.9609
                        CHANNELS 6 Xposition Yposition Zposition Zrotation Xrotation Yrotation
                        End Site
                        {
                          OFFSET -0.0147 -0.0181 0.0096
                        }
                      }
                    }
                  }
                  JOINT rPinky1
                  {
                    OFFSET -4.9141 -1.269 0.3592
                    CHANNELS 6 Xposition Yposition Zposition Zrotation Xrotation Yrotation
                    JOINT rPinky2
                    {
                      OFFSET -3.1477 -1.685 0.8462
                      CHANNELS 6 Xposition Yposition Zposition Zrotation Xrotation Yrotation
                      JOINT rPinky2_End
                      {
                        OFFSET -0.8055 -1.585 0.7955
                        CHANNELS 6 Xposition Yposition Zposition Zrotation Xrotation Yrotation
                        End Site
                        {
                          OFFSET -0.0081 -0.0158 0.008
                        }
                      }
                    }
                  }
                }
              }
            }
          }
        }
      }
    }
  }
  JOINT lThigh
  {
    OFFSET 8.367 -8.2066 0.5982
    CHANNELS 6 Xposition Yposition Zposition Zrotation Xrotation Yrotation
    JOINT lShin
    {
      OFFSET 2.1923 -43.463 -0.4932
      CHANNELS 6 Xposition Yposition Zposition Zrotation Xrotation Yrotation
      JOINT lFoot
      {
        OFFSET 0.7333 -45.8593 -2.6451
        CHANNELS 6 Xposition Yposition Zposition Zrotation Xrotation Yrotation
        End Site
        {
          OFFSET 2.6618 -4.2699 12.3931
        }
      }
    }
  }
  JOINT rThigh
  {
    OFFSET -8.367 -8.2066 0.5982
    CHANNELS 6 Xposition Yposition Zposition Zrotation Xrotation Yrotation
    JOINT rShin
    {
      OFFSET -2.1923 -43.463 -0.4931
      CHANNELS 6 Xposition Yposition Zposition Zrotation Xrotation Yrotation
      JOINT rFoot
      {
        OFFSET -0.7333 -45.8593 -2.6451
        CHANNELS 6 Xposition Yposition Zposition Zrotation Xrotation Yrotation
        End Site
        {
          OFFSET -2.6618 -4.2699 12.3931
        }
      }
    }
  }
}
MOTION
Frames:	4
Frame Time:	0.0333333
11.0197 89.5079 51.0666 -7.01671e-015 7.01671e-015 180 0 -1.186 -1.5018 -0.925928 -0.560456 -1.31666 0 9.964 0.2134 -1.86462 -1.09941 -2.64238 0 13.134 -3.2573 -1.86462 -1.09941 -2.64238 0 20.686 -1.6905 0.858034 16.7497 -0.270482 0 7.238 -0.1237 11.1956 2.86871 -0.272428 1.7069 20.075 5.0056 -65.0899 -3.17677 4.4375 13.6458 -0.047 -4.849 1.85188 -0.827359 7.49133 28.3255 -0.9759 2.2888 -45.1016 34.8809 -67.9958 22.1583 -0.53 10.8316 -25.2029 23.5854 -5.736 0.786 0.112 2.5817 -7.5864e-033 7.95139e-016 5.46658e-016 0.3601 -0.878 4.2331 2.06902e-033 2.98177e-016 -3.97569e-016 1.8127 -1.216 2.2227 -1.08623e-032 5.96354e-016 1.04362e-015 0.9571 1.114 1.7695 -3.18055e-015 7.95139e-016 5.96354e-016 4.1246 0.487 4.1451 -3.45871e-031 3.37934e-015 5.86415e-015 3.4052 -1.454 2.7682 0 6.95746e-016 -0 1.4531 -1.795 1.2713 0 3.97569e-016 -0 5.6954 0.21 2.1184 -3.45871e-031 3.37934e-015 5.86415e-015 3.9766 -1.54 2.3863 0 6.95746e-016 -0 1.4042 -1.926 1.125 0 3.97569e-016 -0 2.0956 0.66 -0.3894 -3.18055e-015 7.95139e-016 5.96354e-016 5.0395 -0.09 2.4971 -3.45871e-031 3.37934e-015 5.86415e-015 3.7921 -1.552 1.4806 0 6.95746e-016 -0 1.4655 -1.808 0.9609 0 3.97569e-016 -0 4.9141 -1.269 0.3591 -3.45871e-031 3.37934e-015 5.86415e-015 3.1477 -1.685 0.8462 0 6.95746e-016 -0 0.8055 -1.585 0.7955 0 3.97569e-016 -0 -1.7069 20.075 5.0056 58.5645 -0.323435 23.146 -13.6458 -0.047 -4.849 -9.73823 -3.34193 -11.897 -28.3255 -0.9759 2.2888 43.3002 29.2996 76.1955 -22.1583 -0.53 10.8316 12.7722 36.7404 21.2621 -0.786 0.112 2.5817 -1.51436e-006 -4.48219e-007 5.3531e-007 -0.3601 -0.878 4.2331 -2.58498e-006 2.86533e-007 -2.49342e-006 -1.8127 -1.216 2.2227 -1.51436e-006 -4.48219e-007 5.3531e-007 -0.9571 1.114 1.7695 0 0 -3.18055e-015 -4.1246 0.487 4.1451 -1.51436e-006 -4.48219e-007 5.3531e-007 -3.4052 -1.454 2.7682 -2.58498e-006 2.86533e-007 -2.49342e-006 -1.4531 -1.795 1.2713 -1.51436e-006 -4.48219e-007 5.3531e-007 -5.6954 0.21 2.1184 -1.51436e-006 -4.48219e-007 5.3531e-007 -3.9766 -1.54 2.3863 -2.58498e-006 2.86533e-007 -2.49342e-006 -1.4042 -1.926 1.125 -1.51436e-006 -4.48219e-007 5.3531e-007 -2.0956 0.66 -0.3894 0 0 -3.18055e-015 -5.0395 -0.09 2.4971 -1.51436e-006 -4.48219e-007 5.3531e-007 -3.7921 -1.552 1.4806 -2.58498e-006 2.86533e-007 -2.49342e-006 -1.4655 -1.808 0.9609 -1.51436e-006 -4.48219e-007 5.3531e-007 -4.9141 -1.269 0.3592 -1.51436e-006 -4.48219e-007 5.3531e-007 -3.1477 -1.685 0.8462 -2.58498e-006 2.86533e-007 -2.49342e-006 -0.8055 -1.585 0.7955 -1.51436e-006 -4.48219e-007 5.3531e-007 8.367 -8.2066 0.5982 7.7121 -7.22972 1.01399 2.1923 -43.463 -0.4932 0.127037 18.594 0.427908 0.7333 -45.8593 -2.6451 -0.0277057 -2.85622 24.8745 -8.367 -8.2066 0.5982 -6.58616 -17.374 -3.373 -2.1923 -43.463 -0.4931 -2.5851 30.0886 1.0563 -0.7333 -45.8593 -2.6451 -14.5392 -15.9824 -4.23595 
10.9015 89.508 51.0738 -7.01671e-015 7.01671e-015 180 0 -1.186 -1.5018 -0.933438 -0.56431 -1.31455 1.77636e-015 9.964 0.2134 -1.87971 -1.10698 -2.63831 0 13.134 -3.2573 -1.87971 -1.10698 -2.63831 0 20.686 -1.6905 0.851919 16.6402 -0.26778 0 7.238 -0.1237 11.1222 2.85018 -0.268771 1.7069 20.075 5.0056 -65.0363 -3.14133 4.34855 13.6458 -0.047 -4.849 1.85187 -0.827357 7.49133 28.3255 -0.9759 2.2888 -45.1546 34.7985 -68.1808 22.1583 -0.53 10.8316 -25.1906 23.5598 -5.62535 0.786 0.112 2.5817 3.18055e-015 -1.98785e-016 7.45443e-016 0.3601 -0.878 4.2331 -3.18055e-015 -4.96962e-016 -3.47873e-016 1.8127 -1.216 2.2227 -3.18055e-015 -2.98177e-016 3.97569e-016 0.9571 1.114 1.7695 6.36111e-015 -1.98785e-016 2.98177e-016 4.1246 0.487 4.1451 -2.22075e-031 2.28602e-015 5.56597e-015 3.4052 -1.454 2.7682 -6.36111e-015 -5.96354e-016 -1.09332e-015 1.4531 -1.795 1.2713 -9.54166e-015 9.93923e-017 9.93923e-016 5.6954 0.21 2.1184 -2.22075e-031 2.28602e-015 5.56597e-015 3.9766 -1.54 2.3863 -6.36111e-015 -5.96354e-016 -1.09332e-015 1.4042 -1.926 1.125 -9.54166e-015 9.93923e-017 9.93923e-016 2.0956 0.66 -0.3894 6.36111e-015 -1.98785e-016 2.98177e-016 5.0395 -0.09 2.4971 -2.22075e-031 2.28602e-015 5.56597e-015 3.7921 -1.552 1.4806 -6.36111e-015 -5.96354e-016 -1.09332e-015 1.4655 -1.808 0.9609 -9.54166e-015 9.93923e-017 9.93923e-016 4.9141 -1.269 0.3591 -2.22075e-031 2.28602e-015 5.56597e-015 3.1477 -1.685 0.8462 -6.36111e-015 -5.96354e-016 -1.09332e-015 0.8055 -1.585 0.7955 -9.54166e-015 9.93923e-017 9.93923e-016 -1.7069 20.075 5.0056 58.5193 -0.337915 23.2184 -13.6458 -0.047 -4.849 -9.64969 -3.36427 -11.6531 -28.3255 -0.9759 2.2888 43.396 29.1939 76.2702 -22.1583 -0.53 10.8316 12.6006 36.5968 21.3104 -0.786 0.112 2.5817 -4.32549e-006 9.3138e-007 -1.10652e-006 -0.3601 -0.878 4.2331 -1.31329e-006 1.57536e-007 1.98955e-006 -1.8127 -1.216 2.2227 -2.5798e-006 2.97183e-007 -2.49775e-006 -0.9571 1.114 1.7695 0 6.36111e-015 -0 -4.1246 0.487 4.1451 -4.32549e-006 9.3138e-007 -1.10652e-006 -3.4052 -1.454 2.7682 -1.31329e-006 1.57536e-007 1.98955e-006 -1.4531 -1.795 1.2713 -2.5798e-006 2.97183e-007 -2.49775e-006 -5.6954 0.21 2.1184 -4.32549e-006 9.3138e-007 -1.10652e-006 -3.9766 -1.54 2.3863 -1.31329e-006 1.57536e-007 1.98955e-006 -1.4042 -1.926 1.125 -2.5798e-006 2.97183e-007 -2.49775e-006 -2.0956 0.66 -0.3894 0 6.36111e-015 -0 -5.0395 -0.09 2.4971 -4.32549e-006 9.3138e-007 -1.10652e-006 -3.7921 -1.552 1.4806 -1.31329e-006 1.57536e-007 1.98955e-006 -1.4655 -1.808 0.9609 -2.5798e-006 2.97183e-007 -2.49775e-006 -4.9141 -1.269 0.3592 -4.32549e-006 9.3138e-007 -1.10652e-006 -3.1477 -1.685 0.8462 -1.31329e-006 1.57536e-007 1.98955e-006 -0.8055 -1.585 0.7955 -2.5798e-006 2.97183e-007 -2.49775e-006 8.367 -8.2066 0.5982 7.629 -7.24877 1.01649 2.1923 -43.463 -0.4932 0.126945 18.5938 0.425832 0.7333 -45.8593 -2.6451 0.0567607 -2.88692 24.7143 -8.367 -8.2066 0.5982 -6.67875 -17.3057 -3.37678 -2.1923 -43.463 -0.4931 -2.54296 29.95 1.03585 -0.7333 -45.8593 -2.6451 -14.4712 -15.9108 -4.2042 
10.7832 89.5081 51.0809 -7.01671e-015 7.01671e-015 180 0 -1.186 -1.5018 -0.940951 -0.568169 -1.31245 1.77636e-015 9.964 0.2134 -1.89481 -1.11456 -2.63425 3.55271e-015 13.134 -3.2573 -1.89481 -1.11456 -2.63425 0 20.686 -1.6905 0.84585 16.5309 -0.265074 0 7.238 -0.1237 11.0488 2.83164 -0.26513 1.7069 20.075 5.0056 -64.9828 -3.106 4.25959 13.6458 -0.047 -4.849 1.8519 -0.82736 7.49133 28.3255 -0.9759 2.2888 -45.2079 34.7163 -68.3656 22.1583 -0.53 10.8316 -25.1783 23.5343 -5.5147 0.786 0.112 2.5817 3.18055e-015 1.30701e-014 -4.96962e-017 0.3601 -0.878 4.2331 6.36111e-015 1.30204e-014 -6.95746e-016 1.8127 -1.216 2.2227 6.36111e-015 1.19271e-014 4.96962e-017 0.9571 1.114 1.7695 2.71559e-033 3.47873e-016 -4.47266e-016 4.1246 0.487 4.1451 6.36111e-015 1.5704e-014 6.21202e-015 3.4052 -1.454 2.7682 3.18055e-015 1.2424e-014 -3.97569e-016 1.4531 -1.795 1.2713 6.36111e-015 1.2424e-014 1.98785e-016 5.6954 0.21 2.1184 6.36111e-015 1.5704e-014 6.21202e-015 3.9766 -1.54 2.3863 3.18055e-015 1.2424e-014 -3.97569e-016 1.4042 -1.926 1.125 6.36111e-015 1.2424e-014 1.98785e-016 2.0956 0.66 -0.3894 2.71559e-033 3.47873e-016 -4.47266e-016 5.0395 -0.09 2.4971 6.36111e-015 1.5704e-014 6.21202e-015 3.7921 -1.552 1.4806 3.18055e-015 1.2424e-014 -3.97569e-016 1.4655 -1.808 0.9609 6.36111e-015 1.2424e-014 1.98785e-016 4.9141 -1.269 0.3591 6.36111e-015 1.5704e-014 6.21202e-015 3.1477 -1.685 0.8462 3.18055e-015 1.2424e-014 -3.97569e-016 0.8055 -1.585 0.7955 6.36111e-015 1.2424e-014 1.98785e-016 -1.7069 20.075 5.0056 58.4741 -0.352418 23.2909 -13.6458 -0.047 -4.849 -9.56103 -3.38624 -11.4091 -28.3255 -0.9759 2.2888 43.492 29.0884 76.3451 -22.1583 -0.53 10.8316 12.4293 36.4529 21.3582 -0.786 0.112 2.5817 -1.05891e-006 7.51445e-007 -3.03148e-006 -0.3601 -0.878 4.2331 -6.36111e-015 3.18055e-015 3.18055e-015 -1.8127 -1.216 2.2227 -3.53113e-031 -6.36111e-015 -3.18055e-015 -0.9571 1.114 1.7695 -3.18055e-015 -6.36111e-015 6.36111e-015 -4.1246 0.487 4.1451 -1.05891e-006 7.51444e-007 -3.03148e-006 -3.4052 -1.454 2.7682 6.36111e-015 0 -0 -1.4531 -1.795 1.2713 6.36111e-015 -9.54166e-015 -6.36111e-015 -5.6954 0.21 2.1184 -1.05891e-006 7.51444e-007 -3.03148e-006 -3.9766 -1.54 2.3863 6.36111e-015 0 -0 -1.4042 -1.926 1.125 6.36111e-015 -9.54166e-015 -6.36111e-015 -2.0956 0.66 -0.3894 -3.18055e-015 -6.36111e-015 6.36111e-015 -5.0395 -0.09 2.4971 -1.05891e-006 7.51444e-007 -3.03148e-006 -3.7921 -1.552 1.4806 6.36111e-015 0 -0 -1.4655 -1.808 0.9609 6.36111e-015 -9.54166e-015 -6.36111e-015 -4.9141 -1.269 0.3592 -1.05891e-006 7.51444e-007 -3.03148e-006 -3.1477 -1.685 0.8462 6.36111e-015 0 -0 -0.8055 -1.585 0.7955 6.36111e-015 -9.54166e-015 -6.36111e-015 8.367 -8.2066 0.5982 7.54597 -7.26786 1.01897 2.1923 -43.463 -0.4932 0.12681 18.5941 0.423738 0.7333 -45.8593 -2.6451 0.141156 -2.91822 24.554 -8.367 -8.2066 0.5982 -6.77137 -17.237 -3.3805 -2.1923 -43.463 -0.4931 -2.50085 29.8111 1.01554 -0.7333 -45.8593 -2.6451 -14.4034 -15.8393 -4.17255 
10.665 89.5083 51.0881 -7.01671e-015 7.01671e-015 180 0 -1.186 -1.5018 -0.948459 -0.572028 -1.31035 0 9.964 0.2134 -1.90989 -1.12214 -2.63019 0 13.134 -3.2573 -1.90989 -1.12214 -2.63019 3.55271e-015 20.686 -1.6905 0.839731 16.4211 -0.262389 3.55271e-015 7.238 -0.1237 10.9754 2.81308 -0.26152 1.7069 20.075 5.0056 -64.9291 -3.07071 4.17055 13.6458 -0.047 -4.849 1.85191 -0.827359 7.49133 28.3255 -0.9759 2.2888 -45.2615 34.6341 -68.5505 22.1583 -0.53 10.8316 -25.166 23.5088 -5.40403 0.786 0.112 2.5817 -9.54166e-015 1.2424e-015 6.70898e-016 0.3601 -0.878 4.2331 -6.36111e-015 8.44835e-016 2.98177e-016 1.8127 -1.216 2.2227 -6.36111e-015 -9.93923e-017 -9.69075e-016 0.9571 1.114 1.7695 -6.36111e-015 8.44835e-016 6.4605e-016 4.1246 0.487 4.1451 -3.18055e-015 4.17448e-015 7.35503e-015 3.4052 -1.454 2.7682 -4.39666e-033 8.44835e-016 2.98177e-016 1.4531 -1.795 1.2713 -1.68108e-033 -9.93923e-017 -9.69075e-016 5.6954 0.21 2.1184 -3.18055e-015 4.17448e-015 7.35503e-015 3.9766 -1.54 2.3863 -4.39666e-033 8.44835e-016 2.98177e-016 1.4042 -1.926 1.125 -1.68108e-033 -9.93923e-017 -9.69075e-016 2.0956 0.66 -0.3894 -6.36111e-015 8.44835e-016 6.4605e-016 5.0395 -0.09 2.4971 -3.18055e-015 4.17448e-015 7.35503e-015 3.7921 -1.552 1.4806 -4.39666e-033 8.44835e-016 2.98177e-016 1.4655 -1.808 0.9609 -1.68108e-033 -9.93923e-017 -9.69075e-016 4.9141 -1.269 0.3591 -3.18055e-015 4.17448e-015 7.35503e-015 3.1477 -1.685 0.8462 -4.39666e-033 8.44835e-016 2.98177e-016 0.8055 -1.585 0.7955 -1.68108e-033 -9.93923e-017 -9.69075e-016 -1.7069 20.075 5.0056 58.4289 -0.367023 23.3633 -13.6458 -0.047 -4.849 -9.47221 -3.40785 -11.1649 -28.3255 -0.9759 2.2888 43.588 28.9829 76.4202 -22.1583 -0.53 10.8316 12.2585 36.3089 21.4053 -0.786 0.112 2.5817 8.82426e-007 -3.03279e-006 -7.59784e-007 -0.3601 -0.878 4.2331 3.2035e-006 3.15544e-006 2.73945e-006 -1.8127 -1.216 2.2227 8.82426e-007 -3.03279e-006 -7.59784e-007 -0.9571 1.114 1.7695 -1.76556e-031 3.18055e-015 3.18055e-015 -4.1246 0.487 4.1451 8.82426e-007 -3.03279e-006 -7.59784e-007 -3.4052 -1.454 2.7682 3.2035e-006 3.15544e-006 2.73945e-006 -1.4531 -1.795 1.2713 8.82426e-007 -3.03279e-006 -7.59784e-007 -5.6954 0.21 2.1184 8.82426e-007 -3.03279e-006 -7.59784e-007 -3.9766 -1.54 2.3863 3.2035e-006 3.15544e-006 2.73945e-006 -1.4042 -1.926 1.125 8.82426e-007 -3.03279e-006 -7.59784e-007 -2.0956 0.66 -0.3894 -1.76556e-031 3.18055e-015 3.18055e-015 -5.0395 -0.09 2.4971 8.82426e-007 -3.03279e-006 -7.59784e-007 -3.7921 -1.552 1.4806 3.2035e-006 3.15544e-006 2.73945e-006 -1.4655 -1.808 0.9609 8.82426e-007 -3.03279e-006 -7.59784e-007 -4.9141 -1.269 0.3592 8.82426e-007 -3.03279e-006 -7.59784e-007 -3.1477 -1.685 0.8462 3.2035e-006 3.15544e-006 2.73945e-006 -0.8055 -1.585 0.7955 8.82426e-007 -3.03279e-006 -7.59784e-007 8.367 -8.2066 0.5982 7.46292 -7.28641 1.02142 2.1923 -43.463 -0.4932 0.126672 18.5934 0.421612 0.7333 -45.8593 -2.6451 0.225506 -2.94942 24.3938 -8.367 -8.2066 0.5982 -6.86393 -17.1685 -3.38409 -2.1923 -43.463 -0.4931 -2.45891 29.6726 0.995361 -0.7333 -45.8593 -2.6451 -14.3355 -15.7678 -4.14102 
